<svg width="70" height="70" viewBox="0 0 70 70" fill="none" xmlns="http://www.w3.org/2000/svg">
<g clip-path="url(#clip0_143_1377)">
<mask id="mask0_143_1377" style="mask-type:luminance" maskUnits="userSpaceOnUse" x="0" y="0" width="70" height="70">
<path d="M70 0H0V70H70V0Z" fill="white"/>
</mask>
<g mask="url(#mask0_143_1377)">
<path d="M43.2305 55.467C42.7656 59.76 40.9063 63.0276 38.2129 65.885C37.9941 66.1174 37.7754 66.3772 37.502 66.5413C36.8867 66.9104 36.2578 66.8967 35.7383 66.3635C35.2188 65.8166 35.2188 65.1877 35.6563 64.5998C35.9024 64.2717 36.2305 63.9983 36.5039 63.6975C38.6367 61.3596 40.1953 58.7346 40.4004 55.4944C40.5508 53.1018 39.9629 50.8459 39.0879 48.6311C37.9805 45.8557 36.6816 43.135 35.8887 40.2639C34.3164 34.6038 35.2324 29.2717 39.0469 24.678C40.8379 22.5178 42.9024 20.5764 44.8848 18.594C47.4414 16.051 50.0117 13.5081 51.502 10.1448C52.1992 8.55884 52.6094 6.84985 53.1426 5.19555C53.252 4.84009 53.2793 4.47095 53.416 4.12915C53.6895 3.44556 54.2227 3.11743 54.9473 3.25415C55.6719 3.40454 56.0547 3.92407 56.041 4.64868C56.0274 5.19555 56 5.78345 55.7949 6.27563C55.4531 7.12329 55.6992 7.68384 56.2598 8.36743C59.4316 12.2776 60.375 16.7893 59.2949 21.6291C58.666 24.4592 59.1445 26.8655 60.8125 29.176C61.8106 30.5569 62.7402 32.0061 63.4922 33.5237C64.3672 35.2873 64.709 37.1331 62.5898 39.0198C62.3301 39.2522 62.2344 39.717 62.1387 40.0998C61.9063 41.1252 61.7149 42.1643 61.5371 43.2034C61.4961 43.4631 61.4961 43.7502 61.5508 43.9963C61.8242 45.1721 61.6875 46.2659 61.127 47.3459C60.9219 47.7561 60.8399 48.3166 60.8945 48.7815C61.2637 52.3498 59.6914 54.6877 56.2188 55.6858C53.9902 56.3284 51.7344 56.1506 49.4785 55.9729C47.4277 55.8088 45.377 55.6448 43.2305 55.467ZM43.1348 52.719C44.4336 52.801 45.6231 52.8831 46.8262 52.9514C49.082 53.0881 51.3379 53.2659 53.5938 53.3069C54.4414 53.3206 55.3574 53.1291 56.1367 52.7737C58.1055 51.8577 58.5977 50.6956 58.1465 49.0549C57.8457 47.9748 57.8867 46.8811 58.707 45.9241C58.9121 45.678 58.8711 45.2131 58.9668 44.7756C58.1602 44.8987 57.5723 45.0217 56.9844 45.0627C56.3965 45.1174 55.7949 45.1584 55.207 45.0901C54.4551 44.9944 54.0859 44.4748 54.1133 43.7366C54.1406 42.9846 54.6055 42.5745 55.3301 42.4651C55.877 42.3831 56.4375 42.4104 56.9707 42.2737C59.3086 41.6995 59.418 41.8225 59.3086 39.2659C59.2676 38.2268 59.4453 37.5159 60.457 37.0237C61.4551 36.5452 61.5508 36.135 61.1543 35.137C60.8945 34.4944 60.6074 33.8655 60.2383 33.2776C59.5274 32.1428 58.7481 31.0627 58.0371 29.928C56.6836 27.7815 55.7129 25.5393 56.3418 22.887C56.5879 21.8616 56.7109 20.8088 56.834 19.7561C57.1895 16.4885 56.5606 13.4534 54.7149 10.8147C52.7461 13.5627 50.8184 16.2698 48.8223 19.0315C49.4649 18.9905 50.1348 18.9084 50.8184 18.8948C51.7344 18.8674 52.6641 18.8264 53.5801 18.9221C54.4141 19.0041 54.8516 19.5784 54.7969 20.3167C54.7422 21.0823 54.3047 21.4788 53.5664 21.5745C53.334 21.6018 53.1016 21.6018 52.8828 21.6018C51.7344 21.6565 50.5723 21.6702 49.4375 21.7795C47.3457 21.9846 45.2266 22.4905 43.6543 23.8303C40.4688 26.5237 38.4043 29.928 38.1172 34.2756C37.8711 37.9944 38.9649 41.3577 40.4688 44.6663C41.5899 47.2229 42.6973 49.8069 43.1348 52.719Z" fill="white"/>
<path d="M48.4668 31.0079C47.6055 30.8848 46.7305 30.8165 45.8692 30.6251C45.0078 30.4337 44.625 29.7911 44.7617 28.9844C44.8984 28.2325 45.5547 27.7266 46.416 27.9317C48.6445 28.4239 50.6953 28.1641 52.6504 26.9473C53.416 26.4688 54.1953 26.7012 54.5781 27.3438C54.9609 27.9727 54.7832 28.7657 54.0586 29.2715C52.4043 30.4473 50.5176 30.9395 48.4668 31.0079Z" fill="white"/>
<path d="M7.13672 40.9885C6.87695 40.9885 6.60352 40.9065 6.37109 40.7424C5.7832 40.3186 5.66016 39.5119 6.08399 38.924C9.93945 33.592 11.0059 29.4768 12.0313 25.4983C13.0566 21.5471 14.0137 17.8147 17.5137 13.5217C22.0938 7.90255 27.4258 5.4006 31.0762 4.27951C35.0684 3.06271 37.9805 3.19943 38.1035 3.19943C38.8145 3.24044 39.375 3.84201 39.334 4.56661C39.293 5.27755 38.6914 5.8381 37.9805 5.79708C37.9258 5.79708 35.2871 5.70138 31.7324 6.79513C26.9609 8.27169 22.8457 11.0881 19.5234 15.1623C16.3789 19.0178 15.5313 22.3127 14.5332 26.1408C13.4941 30.1604 12.3184 34.6994 8.17578 40.4416C7.94336 40.8108 7.54688 40.9885 7.13672 40.9885Z" fill="white"/>
<path d="M14.3008 62.8224C13.8359 62.8224 13.3984 62.5763 13.1524 62.1388C12.8106 61.5099 13.043 60.717 13.6719 60.3752C20.0156 56.9299 23.8984 53.4299 25.5527 49.6838C27.0156 46.3752 26.7149 43.0529 26.4141 39.5256C25.9629 34.4123 25.4434 28.6017 30.3516 22.0529C36.2305 14.2052 42.082 11.6213 42.3281 11.5256C42.9844 11.2384 43.75 11.5529 44.0371 12.2091C44.3242 12.8654 44.0098 13.631 43.3535 13.9181C43.2988 13.9455 37.8438 16.3654 32.4297 23.6252C28.1231 29.3947 28.5469 34.2072 28.9981 39.3205C29.3262 43.0256 29.668 46.84 27.9316 50.7638C26.0039 55.1115 21.875 58.8986 14.916 62.6857C14.7109 62.7677 14.5059 62.8224 14.3008 62.8224Z" fill="white"/>
</g>
</g>
<defs>
<clipPath id="clip0_143_1377">
<rect width="70" height="70" fill="white"/>
</clipPath>
</defs>
</svg>
