<svg width="70" height="70" viewBox="0 0 70 70" fill="none" xmlns="http://www.w3.org/2000/svg">
<g clip-path="url(#clip0_143_1636)">
<mask id="mask0_143_1636" style="mask-type:luminance" maskUnits="userSpaceOnUse" x="0" y="0" width="70" height="70">
<path d="M70 0H0V70H70V0Z" fill="white"/>
</mask>
<g mask="url(#mask0_143_1636)">
<path d="M62.5488 34.4941C62.5488 30.9395 62.5488 27.3711 62.5488 23.8164C62.5488 23.3926 62.5352 22.9961 62.5078 22.627C62.2344 18.9766 59.4453 15.832 55.8633 15.1621C55.4121 15.0801 55.3711 14.957 55.3711 14.5469C55.3848 12.2227 55.3848 9.85742 55.3711 7.64258C55.3711 6.35742 55.0156 6.01562 53.7305 6.01562C49.9023 6.01562 46.0879 6.01562 42.2598 6.01562C40.7969 6.01562 40.4824 6.33008 40.4824 7.79297C40.4824 8.44922 40.4824 9.0918 40.4824 9.74805C40.4824 11.3066 40.4824 12.9336 40.4551 14.5195C40.4551 14.7383 40.2637 15.0801 40.1816 15.1211C35.4922 16.4336 33.3047 19.3047 33.3047 24.1582C33.3047 28.6562 33.3047 33.1406 33.3047 37.6387V41.0156C33.3047 42.8066 33.3047 44.5977 33.3047 46.375C33.3047 50.4902 33.3047 54.7559 33.3184 58.9395C33.332 61.8789 35.2871 63.957 38.0898 63.957C40.9883 63.9707 43.9004 63.998 46.8125 63.998C50.4766 63.998 54.127 64.0117 57.7227 64.0117H57.8184C59.3086 64.0117 60.5527 63.3828 61.5234 62.1797C62.4395 61.0449 62.5625 59.6914 62.5625 58.6387C62.5488 50.5723 62.5488 42.5332 62.5488 34.4941ZM42.9297 8.47656H52.9102V9.59766C52.7734 9.59766 52.5137 9.59766 52.2949 9.59766C51.6113 9.59766 50.9141 9.61133 50.2168 9.58398C49.4785 9.55664 48.7129 9.69336 48.4805 10.8555C48.4395 11.0332 48.0703 11.334 47.9199 11.334C47.7695 11.334 47.4004 11.0059 47.3594 10.8008C47.1133 9.76172 46.416 9.58398 45.7871 9.58398C45.7461 9.58398 45.7051 9.58398 45.6641 9.58398C44.9668 9.61133 44.3105 9.59766 43.5859 9.59766C43.3672 9.59766 43.0801 9.59766 42.9434 9.59766V8.47656H42.9297ZM42.9297 11.9355C42.9297 11.9355 43.1758 11.9355 43.3125 11.9355C43.9004 11.9219 44.4883 11.9219 45.0762 11.9629C45.0898 11.9629 45.1992 11.9902 45.459 12.3867C46.0605 13.248 47.0039 13.7539 47.9883 13.7402C48.9453 13.7266 49.793 13.2344 50.3398 12.4141C50.5996 12.0176 50.8047 11.9082 51.2285 11.9355C51.6934 11.9629 52.1035 11.9629 52.582 11.9492C52.7051 11.9492 52.7734 11.9492 52.9102 11.9492V15.0391H42.9297V11.9355ZM57.1074 61.6602H55.043C49.5469 61.6602 44.0508 61.6328 38.5547 61.6328C36.5449 61.6328 35.6426 60.7305 35.6426 58.7207C35.6426 50.832 35.6426 42.9434 35.6426 35.0547C35.6426 34.8633 35.6562 34.6992 35.6699 34.4941C35.6699 34.4668 35.6699 34.4531 35.6699 34.4531H37.7207V39.4297C37.7207 43.4082 37.748 47.373 37.748 51.3516C37.748 52.8965 38.0488 53.1836 39.5664 53.1836C45.1172 53.1836 50.6816 53.1836 56.2461 53.1836C57.7637 53.1836 58.0098 52.8965 58.0098 51.3516C58.0098 47.373 57.9688 43.4082 57.9688 39.4297V34.4531H60.1562V41.5762C60.1562 47.2227 60.1836 52.8965 60.1836 58.543C60.1836 60.7988 59.3633 61.6602 57.1074 61.6602ZM40.0586 50.7227V29.1211H55.6445V50.7227H40.0586ZM60.2109 29.3809C60.2109 30.0918 60.2109 30.7891 60.2109 31.5C60.2109 31.6367 60.1973 31.8691 60.1836 32.0332V32.1289H57.9688V31.0625C57.9688 30.2012 58.0098 29.3398 58.0098 28.4785C58.0098 26.9336 57.75 26.6328 56.2461 26.6328C50.668 26.6328 45.0898 26.6328 39.498 26.6328C38.1035 26.6328 37.7891 26.9609 37.7754 28.3555C37.7754 29.2441 37.7754 30.2012 37.7754 31.1035V32.1152H35.6836C35.6836 32.1152 35.6836 32.0059 35.6836 31.9785C35.6699 31.7734 35.6562 31.5547 35.6562 31.3633V30.0098C35.6562 27.959 35.6426 25.8125 35.6562 23.7207C35.6699 19.8379 38.1855 17.3086 42.0547 17.3086C46.7988 17.2949 50.4492 17.2949 53.8809 17.3086C57.627 17.3223 60.1699 19.8105 60.2109 23.5156C60.2246 25.4844 60.2109 27.4668 60.2109 29.3809Z" fill="white"/>
<path d="M47.9199 42.5196C47.9336 42.5196 47.9473 42.5196 47.9609 42.5196C50.5176 42.5196 52.623 40.2637 52.623 37.6661V37.6524L52.6367 37.6387C52.6367 37.6114 52.6367 37.584 52.6367 37.543C52.623 37.42 52.623 37.2559 52.582 37.0918C52.541 36.9004 52.4863 36.6954 52.3906 36.4493C51.625 34.4122 50.2031 32.9083 48.6855 31.4454C48.4395 31.1993 48.125 31.0762 47.8242 31.0899C47.5234 31.1036 47.2363 31.2676 47.0176 31.5274L46.7988 31.7872C45.7461 33.086 44.6523 34.4258 43.668 35.8204C43.2168 36.4629 43.1621 37.3926 43.1621 37.7618C43.1484 38.9786 43.6406 40.1817 44.5293 41.0567C45.459 41.959 46.6758 42.5196 47.9199 42.5196ZM45.7188 37.0235C46.1836 36.2305 46.7168 35.4649 47.25 34.7266C47.4551 34.4395 47.6602 34.1387 47.8652 33.8516H47.9609C48.166 34.1387 48.3711 34.4258 48.5762 34.7266C49.1094 35.4649 49.6563 36.2305 50.1074 37.0235C50.5723 37.8301 50.2715 38.9239 49.3828 39.6075C48.5078 40.2774 47.25 40.2637 46.3887 39.5665C45.5547 38.8555 45.2676 37.8028 45.7188 37.0235Z" fill="white"/>
<path d="M52.0488 43.709C49.2871 43.709 46.5117 43.7501 43.8047 43.7501H43.791C43.3945 43.7501 42.9023 43.7501 42.6016 44.0782C42.3965 44.2833 42.3008 44.584 42.3145 44.9395C42.3555 46.0059 43.3398 46.0743 43.75 46.0743C43.7773 46.0743 43.791 46.0743 43.8047 46.0743C44.7754 46.0743 45.7598 46.0333 46.7305 46.0469L47.9336 46.0333L49.1367 46.0196C50.1074 46.0196 51.0781 46.0196 52.0625 46.0196C52.459 46.0196 52.9512 45.9786 53.2656 45.6504C53.4707 45.4454 53.5664 45.1719 53.5527 44.8028C53.498 43.6817 52.4453 43.709 52.0488 43.709Z" fill="white"/>
<path d="M50.4219 46.9082C49.875 46.9082 49.3281 46.9082 48.7812 46.9082L47.1953 46.9766C46.6348 46.9766 46.0605 47.0312 45.5 47.0312H45.4863C44.3789 47.0312 44.1328 47.5781 44.1191 48.0977C44.1055 48.4531 44.2012 48.7676 44.4062 48.9727C44.6387 49.2051 44.9805 49.3555 45.4453 49.3555H45.7734C46.5117 49.3555 47.2637 49.3008 48.002 49.3008C48.8223 49.3008 49.6426 49.2734 50.4629 49.2734C51.2695 49.2734 51.748 48.8496 51.7617 48.125C51.7617 47.7695 51.666 47.4824 51.4609 47.2773C51.2285 47.0312 50.873 46.9082 50.4219 46.9082Z" fill="white"/>
<path d="M19.0039 18.5664C12.6191 18.5664 7.4375 23.748 7.4375 30.1328C7.4375 30.7207 7.57422 35.6152 7.82031 36.5586C7.57422 37.502 7.4375 39.5391 7.4375 40.5508C7.4375 42.7109 7.75195 45.0078 7.99805 45.9512C7.75195 46.8945 7.4375 47.8926 7.4375 48.9043C7.4375 49.5059 7.47852 50.0938 7.57422 50.6543C7.49219 51.2148 7.4375 51.8027 7.4375 52.3906C7.4375 58.7754 12.6191 63.957 19.0039 63.957C25.3887 63.957 30.5703 58.7754 30.5703 52.3906C30.5703 51.8027 30.5293 51.2285 30.4336 50.6543C30.5156 50.0801 30.5703 49.4922 30.5703 48.8906C30.5703 47.8652 30.2695 46.8809 30.0098 45.9238C30.2559 44.9805 30.5703 42.6016 30.5703 40.5234C30.5703 39.498 30.4336 37.4746 30.1875 36.5313C30.4336 35.5879 30.5703 30.6934 30.5703 30.1055C30.5703 23.748 25.3887 18.5664 19.0039 18.5664ZM19.0039 61.7012C15.7227 61.7012 12.8242 59.9922 11.1699 57.4082C13.2344 59.3086 15.9824 60.4707 19.0039 60.4707C22.0254 60.4707 24.7734 59.3086 26.8379 57.4082C25.1836 59.9922 22.2988 61.7012 19.0039 61.7012ZM19.0039 58.2148C14.2188 58.2148 10.2676 54.5918 9.76172 49.9434C11.8672 52.7461 15.2305 54.5645 19.0039 54.5645C22.7773 54.5645 26.1406 52.7461 28.2461 49.9434C27.7402 54.5781 23.7891 58.2148 19.0039 58.2148ZM19.0039 45.1719C22.7773 45.1719 26.1406 43.3535 28.2461 40.5508C27.7266 45.1992 23.7891 48.8223 19.0039 48.8223C14.2188 48.8223 10.2812 45.1992 9.76172 40.5508C11.8809 43.3535 15.2305 45.1719 19.0039 45.1719ZM11.2109 38.6641C13.2617 40.5508 16.0098 41.6992 19.0176 41.6992C22.0254 41.6992 24.7734 40.5508 26.8242 38.6641C25.1699 41.2207 22.2852 42.916 19.0176 42.916C15.7363 42.9023 12.8652 41.2207 11.2109 38.6641ZM26.8242 48.0293C25.1562 50.5996 22.2852 52.2949 19.0039 52.2949C15.7363 52.2949 12.8516 50.5996 11.1973 48.043C13.248 49.9297 15.9961 51.0781 19.0039 51.0781C22.0254 51.0781 24.7598 49.916 26.8242 48.0293ZM19.0039 39.4297C13.877 39.4297 9.70703 35.2598 9.70703 30.1328C9.70703 25.0059 13.877 20.8359 19.0039 20.8359C24.1309 20.8359 28.3008 25.0059 28.3008 30.1328C28.3008 35.2598 24.1309 39.4297 19.0039 39.4297Z" fill="white"/>
</g>
</g>
<defs>
<clipPath id="clip0_143_1636">
<rect width="70" height="70" fill="white"/>
</clipPath>
</defs>
</svg>
