<svg width="70" height="70" viewBox="0 0 70 70" fill="none" xmlns="http://www.w3.org/2000/svg">
<g clip-path="url(#clip0_143_1335)">
<mask id="mask0_143_1335" style="mask-type:luminance" maskUnits="userSpaceOnUse" x="0" y="0" width="70" height="70">
<path d="M70 0H0V70H70V0Z" fill="white"/>
</mask>
<g mask="url(#mask0_143_1335)">
<path d="M63.6699 34.904C63.6699 33.8239 63.6973 32.7439 63.6973 31.6775C63.6973 29.9958 63.3828 29.6814 61.7012 29.6814C57.9688 29.6814 54.2363 29.6814 50.5039 29.6814H45.0352C45.4316 28.0407 45.0898 26.6736 43.9824 25.5798C42.9297 24.5271 41.6309 24.5271 40.25 24.5271C40.168 24.5271 40.0859 24.5271 40.0039 24.5271L40.0586 24.4314C40.1953 24.1989 40.3184 23.9939 40.4414 23.7888C41.3711 22.1755 41.5762 20.3025 41.043 18.5251C40.4961 16.7204 39.252 15.2712 37.5293 14.4236C35.8203 13.5896 33.7422 13.5349 31.9512 14.2868C30.2695 14.9978 29.0391 16.2829 28.5059 17.9372C27.9863 19.4958 27.1523 20.1247 25.7988 20.74C21.3418 22.7361 17.6504 26.0993 14.5059 30.9939C14.4238 31.1169 14.3555 31.2263 14.2598 31.3493C14.1641 29.9821 14.1504 28.656 14.1367 27.3571C14.1367 27.0974 14.1367 26.8239 14.123 26.5642C14.1094 25.3064 13.7129 24.8962 12.4687 24.8689C11.0469 24.8415 9.59766 24.8415 8.01172 24.8689C6.71289 24.8825 6.31641 25.2927 6.31641 26.6189C6.31641 32.5114 6.30273 38.281 6.33008 43.9958C6.33008 44.6794 6.43945 45.3083 6.64453 45.8142C7.45117 47.8513 9.00977 48.9724 11.1289 49.0818C12.0449 49.1228 13.043 49.1228 13.959 49.1091C14.3008 49.1091 14.6562 49.0954 15.0664 49.0954V55.6032C14.793 55.6032 14.8203 55.6032 14.7383 55.6032C14.4102 55.6032 14.082 55.5896 13.7676 55.6169C12.8105 55.6853 12.3047 56.1228 12.291 56.9157C12.2773 57.5036 12.5234 58.2146 13.8223 58.2419C14.3418 58.2556 14.8477 58.2556 15.3672 58.2556C15.7227 58.2556 16.0781 58.2556 16.4336 58.2556C16.7891 58.2556 17.1309 58.2556 17.4863 58.2556C17.9785 58.2556 18.4844 58.2556 18.9902 58.2556C20.248 58.2556 21.5605 58.2556 22.8457 58.2419C23.8301 58.2282 24.3223 57.8318 24.3633 57.0251C24.4043 56.1775 23.9258 55.7263 22.8867 55.6169C22.6406 55.5896 22.4629 55.5759 22.2168 55.5622L22.1484 55.5075V49.0818C22.5586 49.0818 22.873 49.0818 23.2559 49.0818C24.418 49.0818 25.4434 49.0681 26.5645 49.0681H26.5781C26.9473 49.0681 27.0703 49.2732 27.2617 49.656C27.4258 49.9841 27.6035 50.2985 27.7676 50.6267C28.3555 51.7614 28.9707 52.9509 29.627 54.072C30.7344 55.9861 33.0039 56.656 35 55.6989C36.9551 54.7556 37.8164 52.445 36.9687 50.4353C35.4102 46.7575 33.7559 42.9978 31.9375 38.9372C31.1719 37.2419 29.8047 36.2165 27.8496 35.9021C27.6309 35.8611 27.4258 35.8474 27.1523 35.8337C27.125 35.8337 27.0977 35.82 27.0566 35.82L29.791 32.279H34.6035C34.6035 32.5525 34.6035 32.8532 34.6035 33.113C34.6035 33.8376 34.6035 34.5212 34.6035 35.2048C34.6172 36.5857 35.0137 36.9821 36.3672 36.9958C37.0918 37.0095 37.8164 37.0095 38.5957 36.9958C38.8691 36.9958 39.1562 36.9958 39.4434 36.9958V56.0818V56.2732C39.4434 56.5056 39.4434 56.7517 39.457 56.9841C39.5117 57.6814 39.9355 58.1189 40.6465 58.1736C41.3848 58.2282 41.9043 57.8318 42.0547 57.0798C42.1094 56.82 42.0957 56.5466 42.0957 56.2732C42.0957 56.1911 42.0957 56.1091 42.0957 56.0407C42.0957 51.3103 42.1094 46.5798 42.1094 41.8493V37.1872H59.1992V41.3161C59.1992 46.2107 59.2266 51.1189 59.2266 56.0134L59.2402 56.1501C59.2402 56.4782 59.2402 56.82 59.2949 57.1482C59.3906 57.7634 59.8555 58.1462 60.5117 58.1736C61.1953 58.1872 61.6738 57.8591 61.7969 57.2439C61.8789 56.82 61.8516 56.3689 61.8516 55.9861C61.8516 51.1872 61.8106 46.3747 61.8106 41.5759V37.0779C63.7109 36.8044 63.6699 36.5993 63.6699 34.904ZM19.2773 49.0818V55.6443H17.6367V49.0818H19.2773ZM60.9766 32.5388V34.3161H37.3242V32.5388H60.9766ZM8.92773 32.7028C8.92773 31.2946 8.88672 29.8864 8.88672 28.4646V27.6169H11.4844V27.8493C11.4844 28.1638 11.4844 28.4509 11.4844 28.738C11.498 29.6677 11.498 30.6111 11.498 31.5271C11.498 33.6462 11.498 35.82 11.6211 37.9665C11.8125 41.1521 14.6836 43.7907 18.0195 43.8728C19.9609 43.9138 21.752 43.9138 23.4746 43.8728C24.0488 43.8591 24.3496 44.0368 24.5684 44.529C24.7871 45.0212 25.0332 45.486 25.293 45.9919C25.3613 46.1286 25.4297 46.2653 25.5117 46.4021C25.4707 46.4021 25.4297 46.4021 25.3887 46.4157C25.1426 46.4294 24.9238 46.4431 24.7188 46.4431C23.4199 46.4431 22.1211 46.4431 20.8086 46.4294C17.8965 46.4157 14.8887 46.4021 11.9219 46.4704C10.9648 46.4841 10.2266 46.238 9.69336 45.7048C9.17383 45.1853 8.87305 44.406 8.90039 43.49C8.95508 39.8943 8.92773 36.2439 8.92773 32.7028ZM24.4453 41.2204C24.4043 41.2204 24.3633 41.2204 24.3223 41.2204C22.4082 41.2888 20.4668 41.2614 18.5801 41.2341H18.2109C16.4473 41.2204 15.0664 40.2087 14.4512 38.5271C14.6152 38.5134 14.7793 38.4861 14.9297 38.4861C16.2422 38.4861 17.5547 38.5271 18.8535 38.5271C21.4238 38.5271 24.0898 38.5544 26.7148 38.5544C26.7285 38.5544 26.7422 38.5544 26.7559 38.5544C28.2051 38.5544 29.1621 39.1423 29.7363 40.4685C30.543 42.3142 31.3496 44.1325 32.1562 45.9782C32.8809 47.6189 33.6055 49.2595 34.3164 50.9001C34.4941 51.2966 34.5898 51.6657 34.6172 51.9939C34.6582 52.6364 34.2891 53.1833 33.6602 53.4157C33.0859 53.6345 32.3887 53.4157 32.0195 52.8962C31.8145 52.6228 31.6641 52.3083 31.5 52.0075C31.459 51.9255 31.418 51.8435 31.377 51.7614C30.9668 50.9958 30.5703 50.2302 30.1602 49.4782C28.957 47.2087 27.6992 44.8571 26.5098 42.5329C26.0312 41.6169 25.4297 41.2204 24.4453 41.2204ZM26.0039 27.1521C25.4844 27.7536 25.6211 28.5056 26.3594 29.1618C26.7285 29.4763 27.0977 29.7907 27.4805 30.1189C27.6172 30.2282 27.7402 30.3376 27.877 30.447L27.043 31.5134C25.9629 32.9079 24.9375 34.2341 23.8711 35.5739C23.7617 35.7107 23.4883 35.82 23.2695 35.82C21.0273 35.8337 18.7441 35.8337 16.5293 35.8337H14.9707C16.8711 30.8298 22.2441 24.5954 28.2051 22.531C28.2324 22.5857 28.2598 22.654 28.2871 22.7087C28.3828 22.9275 28.4785 23.1325 28.5742 23.3376C29.8457 25.8122 31.8828 27.0974 34.6309 27.1657C35.9707 27.1931 37.3242 27.1931 38.6367 27.1794C39.416 27.1794 40.1953 27.1657 40.9746 27.1794C41.5488 27.1794 42.5332 27.3435 42.5742 28.3689C42.5879 28.697 42.4785 28.9978 42.2734 29.2165C41.9863 29.5036 41.5352 29.6677 40.9746 29.6814H40.5508C37.666 29.695 34.6719 29.695 31.7324 29.6677C31.3906 29.6677 30.9395 29.49 30.5703 29.2165C30.0371 28.82 29.5039 28.3825 28.998 27.9724C28.6973 27.7126 28.3828 27.4528 28.0684 27.2068C27.3027 26.5915 26.4961 26.5778 26.0039 27.1521ZM37.4746 23.3786C36.709 24.1443 35.6836 24.6091 34.6172 24.6091H34.6035C33.5234 24.6091 32.5117 24.1306 31.7461 23.365C30.9668 22.572 30.543 21.5056 30.5566 20.3982C30.584 18.1696 32.3613 16.406 34.6172 16.406H34.6309C36.8867 16.406 38.6504 18.197 38.6641 20.4255C38.6777 21.5329 38.2539 22.5993 37.4746 23.3786Z" fill="#F5DB89"/>
<path d="M50.8457 20.2344C50.5313 20.7676 50.4902 21.3145 50.709 21.7246C50.9004 22.0938 51.2832 22.3125 51.7617 22.3535C52.2266 22.3945 52.7051 22.4082 53.1699 22.4082C53.8125 22.4082 54.4414 22.3809 55.0156 22.3399C55.6856 22.2988 56.1367 21.793 56.1504 21.0957C56.1641 20.4121 55.7676 19.9473 55.084 19.8106C54.8789 19.7695 54.6738 19.7559 54.4414 19.7422C54.4141 19.7422 54.3731 19.7422 54.3457 19.7285C54.3594 19.7149 54.3594 19.7012 54.3731 19.6738C54.4824 19.4688 54.5645 19.291 54.6738 19.1133C54.8242 18.8672 54.9883 18.6074 55.1524 18.3613C55.4258 17.9238 55.7129 17.4863 55.9727 17.0215C56.2188 16.5703 56.2461 16.0918 56.0547 15.709C55.8906 15.3945 55.5899 15.2031 55.207 15.1621C53.9219 15.0254 52.6367 15.0801 51.5293 15.1485C50.9414 15.1895 50.5723 15.709 50.5996 16.4336C50.6406 17.0762 50.9961 17.4727 51.6524 17.5957C51.8574 17.6367 52.0762 17.6641 52.3223 17.7051L52.4043 17.7188C52.2676 17.9375 52.1309 18.1426 52.0078 18.3477C51.584 19.0176 51.2012 19.6192 50.8457 20.2344Z" fill="#F5DB89"/>
<path d="M44.3105 14.2734C44.5293 14.3144 44.748 14.3554 45.0215 14.3964C45.0762 14.4101 45.1309 14.4101 45.1855 14.4238C45.0488 14.6425 44.9121 14.8476 44.7754 15.0664C44.3516 15.7226 43.9551 16.3515 43.5859 16.9941C43.3125 17.4726 43.2715 18.0058 43.4766 18.4023C43.6543 18.7441 43.9824 18.9628 44.4062 19.0039C44.9394 19.0585 45.4863 19.0722 45.9922 19.0722C46.6758 19.0722 47.3184 19.0449 47.8652 19.0039C48.166 18.9902 48.4121 18.8671 48.5898 18.6621C48.8086 18.416 48.918 18.0605 48.8906 17.664C48.8496 17.0214 48.4531 16.5839 47.8379 16.4882C47.6191 16.4472 47.4004 16.4335 47.1543 16.4062C47.1269 16.4062 47.1133 16.4062 47.0859 16.4062C47.1133 16.3515 47.1543 16.2968 47.1816 16.2421C47.3457 15.955 47.4961 15.7089 47.6465 15.4492C47.7695 15.2578 47.8926 15.0664 48.0156 14.8749C48.2617 14.5195 48.5078 14.1367 48.6992 13.7402C48.9316 13.2753 48.9453 12.7695 48.7402 12.3867C48.5762 12.0859 48.2754 11.8945 47.9199 11.8671C46.7988 11.7578 45.5547 11.7714 44.2422 11.8945C43.832 11.9355 43.3945 12.6054 43.3262 13.0156C43.2578 13.6035 43.6543 14.1367 44.3105 14.2734Z" fill="#F5DB89"/>
</g>
</g>
<defs>
<clipPath id="clip0_143_1335">
<rect width="70" height="70" fill="white"/>
</clipPath>
</defs>
</svg>
