<svg width="70" height="70" viewBox="0 0 70 70" fill="none" xmlns="http://www.w3.org/2000/svg">
<g clip-path="url(#clip0_143_1623)">
<mask id="mask0_143_1623" style="mask-type:luminance" maskUnits="userSpaceOnUse" x="0" y="0" width="70" height="70">
<path d="M70 0H0V70H70V0Z" fill="white"/>
</mask>
<g mask="url(#mask0_143_1623)">
<path d="M15.2031 33.6055C15.5859 31.1172 15.7773 28.7246 16.3515 26.4278C17.3769 22.3672 19.7558 19.1133 22.9961 16.4746C23.3926 16.1465 23.748 15.627 23.8574 15.1348C25.0605 9.99418 29.7363 6.27543 35.0683 6.2891C40.4004 6.30277 45.0488 10.0489 46.1973 15.2032C46.293 15.6407 46.6211 16.1192 46.9765 16.4063C51.2558 19.8789 53.8262 24.295 54.4004 29.8184C54.5098 30.8575 54.5371 31.8965 54.5644 32.9493C54.5781 33.4004 54.6738 33.6055 55.166 33.7286C57.4765 34.3301 58.8437 36.1075 58.8848 38.4864C58.8984 39.3477 58.8984 40.2227 58.8848 41.084C58.8437 43.9961 56.9433 45.9649 54.0449 46.1153C53.8945 46.1289 53.7441 46.1289 53.6758 46.1426C52.9785 47.7422 52.3496 49.3145 51.6113 50.8321C51.1601 51.7754 49.998 51.8985 49.6562 51.0645C49.4785 50.627 49.6015 49.9434 49.8203 49.4786C51.5156 46.0059 52.3769 42.3555 52.2676 38.5C52.2676 38.3223 52.2539 38.1446 52.2402 37.9668C52.2402 37.9121 52.1992 37.8575 52.1445 37.7481C45.7187 37.5977 40.4277 35 36.2851 29.9278C35.4648 30.42 34.6582 30.9121 33.8515 31.3907C29.0254 34.1934 23.8711 36.2032 18.4433 37.4746C17.8965 37.5977 17.8144 37.8438 17.8144 38.3223C17.6094 49.0957 24.1992 58.1602 34.4941 61.2227C34.8359 61.3184 35.2734 61.3321 35.6015 61.2227C36.9414 60.7442 38.2676 60.211 39.6074 59.6914C39.8808 59.5821 40.1816 59.336 40.4277 59.3907C40.8652 59.4864 41.4941 59.6641 41.6308 59.9922C41.7812 60.3203 41.5625 61.1543 41.289 61.2774C39.2793 62.1524 37.2422 63 35.1367 63.6426C34.5215 63.834 33.6875 63.4102 32.9902 63.1641C25.0605 60.3614 19.6328 55.0567 16.8711 47.086C16.6523 46.4707 16.4473 46.1426 15.668 46.1153C13.1933 46.0059 11.2793 43.9825 11.1973 41.4942C11.1699 40.7832 11.2383 40.0586 11.1836 39.3477C10.9375 36.6543 12.1133 34.3575 15.2031 33.6055ZM52.1445 35.4922C52.8828 27.8907 50.8594 21.5332 44.2969 17.3633C38.1308 13.4532 31.6777 13.4942 25.5664 17.4864C19.1953 21.6289 17.1855 27.8907 17.8965 35.4649C20.7949 34.4668 23.666 33.5918 26.4551 32.4844C30.9258 30.7207 35 28.2461 38.8008 25.3203C39.539 24.7598 40.1953 24.8008 40.5918 25.4024C41.043 26.0996 40.7558 26.6329 40.1543 27.084C39.4844 27.5762 38.8418 28.0821 38.1308 28.6289C41.8086 33.0996 46.4433 35.3282 52.1445 35.4922ZM43.4629 14.2325C41.8633 10.3496 38.0215 8.1348 33.7969 8.62699C30.3379 9.03715 27.2754 11.7578 26.7148 14.1778C32.2656 11.7305 37.789 11.7442 43.4629 14.2325ZM15.3808 35.9571C14.4238 36.1485 13.6582 36.7364 13.5625 37.6524C13.3984 39.1153 13.3848 40.6328 13.5625 42.0821C13.7129 43.2305 14.8613 43.8594 15.8047 43.7227C15.668 41.1387 15.5176 38.5684 15.3808 35.9571ZM54.6601 35.9707C54.5234 38.5821 54.373 41.1661 54.2363 43.75C55.2344 43.8184 56.3144 43.2032 56.4512 42.0957C56.6289 40.6329 56.6152 39.1289 56.4512 37.6661C56.3691 36.7364 55.6172 36.1211 54.6601 35.9707Z" fill="white"/>
<path d="M48.0429 54.947C47.1679 55.8356 46.3612 56.6559 45.4726 57.572C46.58 58.652 47.7147 59.7595 48.8358 60.8532C49.1366 61.1403 49.4237 61.4411 49.7108 61.7419C50.1893 62.2614 50.2304 62.822 49.7245 63.3278C49.205 63.8337 48.6308 63.7653 48.1249 63.2868C47.496 62.6989 46.8261 62.1247 46.2929 61.4548C44.3651 59.0895 41.9179 57.572 39.0331 56.6559C38.3495 56.4372 37.7069 56.1364 37.0643 55.822C36.0253 55.3161 35.6015 54.4274 35.8612 53.32C36.9003 48.9587 39.5936 46.2243 43.9686 45.1989C45.2128 44.9118 46.1151 45.404 46.5936 46.6071C47.2909 48.3571 47.9198 50.1208 48.6308 51.8571C48.8495 52.3903 49.1776 52.9098 49.5878 53.3337C51.1601 54.9606 52.787 56.5602 54.4003 58.1598C54.5643 58.3239 54.7421 58.488 54.9061 58.6657C55.5624 59.363 55.6444 59.9372 55.1249 60.4567C54.6054 60.9899 54.0311 60.9489 53.3339 60.2653C52.4315 59.3903 51.5565 58.5016 50.6679 57.613C49.8065 56.7243 48.9452 55.863 48.0429 54.947ZM38.1034 53.8395C39.3476 54.3591 40.5507 54.8649 41.7538 55.3708C43.5585 56.1227 43.4491 55.9997 44.9804 54.7692C46.4979 53.5524 46.7167 52.363 45.8143 50.7087C45.2401 49.6559 44.912 48.4802 44.4882 47.3727C41.0292 48.2067 38.6093 50.654 38.1034 53.8395Z" fill="white"/>
<path d="M26.3866 42.5473C25.0741 42.5063 23.912 42.0414 22.914 41.1528C22.3945 40.6879 22.2304 40.141 22.6679 39.5668C23.1191 38.9653 23.6933 38.9789 24.3085 39.4028C25.9765 40.5785 26.8925 40.5785 28.5878 39.4028C29.162 39.0063 29.7089 38.9516 30.1737 39.4985C30.6659 40.0863 30.5155 40.6606 29.9823 41.1528C28.9706 42.0688 27.7812 42.5199 26.3866 42.5473Z" fill="white"/>
<path d="M43.5312 42.5472C42.205 42.5062 41.0429 42.055 40.0449 41.1663C39.498 40.6741 39.3476 40.1136 39.8261 39.5257C40.2773 38.9788 40.8242 39.0062 41.412 39.4027C43.162 40.6058 43.914 40.5921 45.7597 39.3616C46.3613 38.9652 46.9081 38.9925 47.332 39.553C47.7421 40.0726 47.6464 40.6195 47.1679 41.0706C46.1562 42.0413 44.9394 42.5198 43.5312 42.5472Z" fill="white"/>
<path d="M58.3242 62.5215C58.3379 63.123 57.8183 63.6973 57.2168 63.6562C56.5742 63.6152 56.1777 63.2598 56.1367 62.6035C56.0957 61.9746 56.6015 61.4688 57.2304 61.4688C57.8183 61.4688 58.3105 61.9473 58.3242 62.5215Z" fill="white"/>
<path d="M41.6445 23.4747C41.6445 22.8458 42.1777 22.3126 42.793 22.3809C43.4355 22.4493 43.832 22.8184 43.8184 23.502C43.8047 24.1856 43.3945 24.5274 42.7656 24.5958C42.1504 24.6505 41.6445 24.1036 41.6445 23.4747Z" fill="white"/>
</g>
</g>
<defs>
<clipPath id="clip0_143_1623">
<rect width="70" height="70" fill="white"/>
</clipPath>
</defs>
</svg>
