<svg width="70" height="70" viewBox="0 0 70 70" fill="none" xmlns="http://www.w3.org/2000/svg">
<g clip-path="url(#clip0_143_1391)">
<mask id="mask0_143_1391" style="mask-type:luminance" maskUnits="userSpaceOnUse" x="0" y="0" width="70" height="70">
<path d="M70 0H0V70H70V0Z" fill="white"/>
</mask>
<g mask="url(#mask0_143_1391)">
<path d="M48.3437 21.1369C48.959 19.4689 49.4648 17.9377 50.1074 16.4611C50.2851 16.0373 50.7773 15.5861 51.2012 15.4767C51.8437 15.3127 52.1855 15.8869 52.4043 16.4474C52.8965 17.7599 53.334 19.0998 53.8672 20.3849C54.0312 20.7677 54.414 21.1505 54.7969 21.3146C56.0273 21.8478 57.2988 22.2853 58.5566 22.7365C59.1582 22.9552 59.6641 23.2287 59.6641 23.9533C59.6504 24.6916 59.1035 24.9377 58.5156 25.1427C57.1484 25.6486 55.7812 26.1681 54.4141 26.6877C54.2773 26.7423 54.168 26.8107 53.8808 26.9474C54.7695 27.713 55.5488 28.4513 56.3828 29.0939C58.5156 30.7209 60.7031 32.2795 62.8359 33.9337C63.2324 34.2345 63.6836 34.8498 63.6289 35.2462C63.5742 35.6427 62.959 36.1212 62.4941 36.2716C60.4433 36.9552 58.8711 38.2404 57.668 39.963C56.4785 41.672 55.3574 43.4494 54.2363 45.213C51.0234 50.2853 46.4023 53.2111 40.4961 54.1271C39.7168 54.2502 39.1016 53.8947 38.9785 53.2521C38.8555 52.5548 39.3203 52.0627 40.168 51.8576C41.6172 51.5021 43.0801 51.2013 44.4746 50.7091C46.9765 49.8205 49.041 48.2482 50.709 46.1837C51.4199 45.3087 52.0762 44.3791 52.7187 43.4357C54.1406 41.3029 55.5351 39.1564 56.957 36.9826C56.3281 37.0236 55.6172 37.092 54.9062 37.1193C53.0605 37.1877 51.1738 37.0236 49.3691 37.3244C45.3223 37.9806 41.4258 39.1974 37.7344 41.0295C35.8887 41.9455 34.084 41.9455 32.2383 41.0295C28.1914 39.0197 23.8574 37.9396 19.4414 37.1877C19.3594 37.174 19.2637 37.1603 19.168 37.1603C17.0762 37.1603 14.998 37.1603 12.9199 37.1603C12.9609 37.2287 13.0976 37.3927 13.2207 37.5841C14.4648 39.4845 15.7637 41.3439 16.9394 43.2716C19.209 46.9904 22.1211 49.8888 26.414 51.133C27.4394 51.4337 28.4922 51.6525 29.5449 51.8576C30.4062 52.0353 30.9121 52.5275 30.8164 53.1837C30.707 53.9084 30.0508 54.2365 29.1621 54.0998C24.9238 53.3888 21.0547 51.8712 18.1836 48.59C16.584 46.758 15.3262 44.6252 13.9316 42.6291C13.125 41.4806 12.4141 40.2638 11.5664 39.1564C10.5137 37.7755 9.10546 36.8459 7.45116 36.2716C7.01366 36.1212 6.46678 35.6564 6.39842 35.2599C6.33007 34.8771 6.71288 34.2345 7.08202 33.9748C11.1289 31.131 15.0664 28.1779 18.498 24.6095C19.9199 23.1193 21.3144 21.6017 22.6133 19.9884C25.0195 16.9806 30.1465 17.2267 32.498 19.3048C34.9043 21.4377 35.0547 21.424 37.5019 19.2912C39.8945 17.1994 45.0488 16.9259 47.4961 20.1388C47.7012 20.467 47.9883 20.7267 48.3437 21.1369ZM45.9375 21.9709C44.4062 19.756 41.248 19.2775 39.1699 20.8908C38.5547 21.3693 37.9805 21.8888 37.3379 22.34C35.875 23.3791 34.125 23.3927 32.6484 22.381C32.2109 22.0802 31.7871 21.7384 31.3769 21.3966C28.8066 19.2775 26.1406 19.4826 23.9121 21.9435C23.666 22.2033 23.4336 22.4767 23.2012 22.7502C20.207 26.3869 16.7754 29.5724 13.0293 32.4298C12.1816 33.0724 11.334 33.715 10.4726 34.3576C12.291 34.672 14.0683 34.8224 15.8457 34.8771C21.5742 35.0412 27.166 34.467 32.3476 31.6779C34.084 30.7482 35.916 30.8576 37.6933 31.7189C38.6641 32.1837 39.6211 32.6759 40.6191 33.0451C46.0058 35.0412 51.5976 35.1232 57.2305 34.713C57.9551 34.6584 58.6797 34.549 59.5137 34.4533C57.3262 32.7306 55.248 31.1037 53.1152 29.422C52.8691 30.1056 52.623 30.7072 52.418 31.3224C52.2129 31.924 51.8848 32.5529 51.2012 32.3888C50.7637 32.2794 50.2715 31.7736 50.0801 31.3361C49.5195 30.092 49.1367 28.7658 48.5898 27.508C48.4258 27.1252 48.043 26.7287 47.6738 26.5646C46.3613 26.0041 44.9805 25.5939 43.6816 25.006C43.2988 24.842 42.8476 24.2951 42.8613 23.9259C42.8613 23.5568 43.3262 23.0646 43.709 22.8459C44.3926 22.463 45.1719 22.258 45.9375 21.9709ZM26.6055 36.4767C26.5508 36.4494 26.6465 36.5177 26.7558 36.5587C29.0117 37.4201 31.2676 38.2541 33.5098 39.1564C34.5215 39.5666 35.4648 39.5939 36.4492 39.1427C37.8437 38.5275 39.2383 37.9123 40.6465 37.3517C41.5625 36.9826 42.5058 36.7091 43.2715 36.4494C41.0019 35.506 38.7051 34.4533 36.3262 33.633C35.4785 33.3459 34.3437 33.3869 33.4824 33.6877C31.1172 34.508 28.8476 35.547 26.6055 36.4767ZM55.2754 23.9396C52.9512 23.5431 51.6113 22.2716 51.2285 19.9064C50.873 22.299 49.4785 23.5158 47.1953 23.9533C49.5605 24.2814 50.791 25.6623 51.2558 27.9318C51.6113 25.5666 52.9785 24.3498 55.2754 23.9396Z" fill="white"/>
<path d="M34.9863 52.3086C35.5742 52.377 36.0254 52.6641 36.0801 53.3477C36.1347 53.9766 35.6426 54.5234 35.0273 54.5508C34.3984 54.5781 33.9062 54.0859 33.9062 53.416C33.8926 52.7871 34.3301 52.3359 34.9863 52.3086Z" fill="white"/>
</g>
</g>
<defs>
<clipPath id="clip0_143_1391">
<rect width="70" height="70" fill="white"/>
</clipPath>
</defs>
</svg>
