<svg width="70" height="70" viewBox="0 0 70 70" fill="none" xmlns="http://www.w3.org/2000/svg">
<g clip-path="url(#clip0_143_1613)">
<mask id="mask0_143_1613" style="mask-type:luminance" maskUnits="userSpaceOnUse" x="0" y="0" width="70" height="70">
<path d="M70 0H0V70H70V0Z" fill="white"/>
</mask>
<g mask="url(#mask0_143_1613)">
<path d="M31.4453 48.5491C30.1602 48.303 30.2559 48.3303 29.9278 49.4378C29.4492 51.0237 28.8477 52.5823 28.2324 54.1272C27.959 54.8108 27.3985 55.1663 26.6328 54.8245C25.9903 54.5237 25.8399 53.8538 26.2774 53.0608C27.0977 51.5569 27.6856 49.971 27.8223 48.1526C27.2207 48.0159 26.6192 47.8928 26.0723 47.7698C25.7168 48.8635 25.4571 49.9436 25.0332 50.9417C24.7051 51.6936 24.2129 52.3909 23.7207 53.0608C23.1192 53.8538 22.4492 53.9905 21.9024 53.5667C21.3281 53.1155 21.4239 52.5413 21.9571 51.68C22.5586 50.6682 23.1602 49.6155 23.502 48.4944C23.9121 47.1409 23.8028 47.1136 22.3535 46.7581C22.1621 47.305 21.9844 47.8792 21.7656 48.4261C21.0821 50.094 19.9336 51.3382 18.375 52.2268C17.7461 52.5823 17.1719 52.596 16.7207 51.9807C16.3379 51.4475 16.5293 50.7229 17.2266 50.3128C18.5254 49.5608 19.4414 48.4944 19.9063 47.0725C20.3164 45.7874 20.2754 45.7327 18.9629 45.2952C18.3203 46.1975 17.7871 47.1819 17.0078 47.9339C16.2285 48.6858 15.2578 49.2737 14.3008 49.7932C13.3164 50.3264 12.7422 50.1624 12.4004 49.4378C12.0723 48.7405 12.3594 48.2073 13.3848 47.7698C14.6016 47.2366 15.5723 46.4436 16.2559 45.3089C16.9805 44.1057 16.9805 44.0784 15.8321 43.3811C14.8614 44.1468 13.9453 44.9397 12.961 45.6507C12.4824 45.9925 11.8946 46.1565 11.3477 46.4026C10.6231 46.7171 10.0899 46.4436 9.81643 45.7737C9.55667 45.1175 9.89846 44.6389 10.5137 44.3245C11.2246 43.969 11.9492 43.6135 12.6192 43.176C13.084 42.8753 13.4805 42.4378 13.9453 42.0276C13.1934 41.344 12.5508 40.7698 11.9219 40.1819C11.0879 39.4026 10.9375 38.7327 11.4297 38.1995C11.9356 37.6526 12.6328 37.7483 13.4531 38.5276C16.0098 40.9749 18.8809 42.93 22.1895 44.1878C31.7871 47.8382 40.8106 46.6761 49.1641 40.7014C50.1348 40.0042 50.9824 39.1565 51.8848 38.3772C52.6094 37.7483 53.3067 37.6936 53.7715 38.2268C54.209 38.7327 54.0996 39.3753 53.4297 40.0178C52.7598 40.6604 52.0625 41.262 51.3653 41.9182C52.1172 42.9846 53.1153 43.6956 54.291 44.1741C54.6328 44.3108 55.084 44.5022 55.2207 44.7893C55.3848 45.1311 55.4121 45.7327 55.2071 45.9788C54.961 46.2659 54.3457 46.512 53.9903 46.4026C52.5 45.9925 51.2285 45.1585 50.1758 44.01C49.9571 43.7776 49.7383 43.5315 49.4922 43.2581C49.1231 43.5042 48.7813 43.7229 48.3711 43.9964C48.9043 45.6643 49.9571 46.8401 51.502 47.6057C51.7617 47.7425 52.0489 47.8382 52.3086 47.9886C52.8692 48.3303 53.0879 48.8362 52.7871 49.4378C52.5 50.012 52.0215 50.2307 51.3653 49.9846C49.3145 49.219 47.7696 47.9065 46.7442 45.9651C46.6211 45.7327 46.5117 45.4866 46.4024 45.2542C44.9668 45.596 44.8985 45.7053 45.3223 47.0589C45.7188 48.3303 46.4981 49.3284 47.6192 50.053C47.7969 50.1624 47.9746 50.2718 48.1524 50.3948C48.7266 50.8186 48.8633 51.3792 48.4805 51.9534C48.125 52.5003 47.5918 52.596 46.9903 52.2815C45.1719 51.3108 43.9141 49.8616 43.2442 47.9065C43.1211 47.5374 43.0117 47.1682 42.9024 46.7991C41.3848 46.9905 41.2617 47.0589 41.6856 48.3987C42.0547 49.5335 42.6289 50.6272 43.2442 51.6663C43.7364 52.5003 43.8321 53.1428 43.2715 53.5667C42.7383 53.9768 42.0957 53.8264 41.4942 53.1155C40.209 51.5979 39.4707 49.8343 39.252 47.7561C38.5957 47.8792 37.9942 48.0022 37.1602 48.1663C37.5703 49.4925 37.9395 50.7503 38.3633 52.0081C38.5 52.4046 38.7461 52.7464 38.9239 53.1292C39.293 53.8811 39.1563 54.5374 38.5274 54.8245C37.8164 55.1526 37.2422 54.8655 36.9824 54.2093C36.3399 52.637 35.711 51.0647 35.2324 49.4514C34.9043 48.3577 35.0274 48.3303 33.7149 48.5491C33.7149 50.4632 33.7149 52.4046 33.7149 54.3323C33.7149 54.6878 33.7969 55.1253 33.6192 55.385C33.3867 55.7405 32.9492 56.1507 32.5938 56.1643C32.252 56.1643 31.8008 55.7542 31.5684 55.4124C31.3906 55.1526 31.459 54.7151 31.459 54.3596C31.4453 52.4046 31.4453 50.4768 31.4453 48.5491Z" fill="white"/>
<path d="M57.8731 29.3129C57.1758 28.2875 56.4922 27.2621 55.7813 26.2367C54.5098 24.391 53.3477 22.4633 51.9395 20.727C48.3574 16.3246 42.8067 14.9711 37.2969 17.0492C34.8359 17.9789 32.4024 18.9223 29.9414 19.8519C29.586 19.9887 29.1211 20.1801 28.8477 20.057C28.4785 19.893 28.0957 19.4691 28 19.0863C27.8223 18.4301 28.3418 18.0746 28.916 17.8559C31.7324 16.7895 34.5352 15.682 37.3516 14.6566C39.5527 13.85 41.8496 13.6723 44.1465 14.0004C48.5899 14.6156 52.0762 16.8305 54.6055 20.5219C57.4902 24.7328 60.3477 28.9574 63.2324 33.182C63.6426 33.7973 63.9844 34.4125 63.3145 35.0141C62.7129 35.5609 62.1113 35.2738 61.5371 34.8637C56.8067 31.5277 52.0625 28.2055 47.3457 24.8422C45.4727 23.516 43.5176 23.2562 41.3438 24.0082C31.6777 27.3441 22.0117 30.6254 12.332 33.9203C9.85743 34.7543 7.61525 33.7973 6.68556 31.5687C5.7422 29.2992 6.68556 26.5922 8.96876 25.5805C11.6621 24.391 14.4512 23.4066 17.1992 22.3402C17.9238 22.0531 18.6348 21.766 19.3731 21.5199C20.2481 21.2055 20.877 21.4105 21.1231 22.0531C21.3692 22.7094 21.0684 23.2562 20.1797 23.598C16.9258 24.8559 13.6582 26.0727 10.4317 27.3852C9.81642 27.6312 9.2422 28.1781 8.87306 28.7387C8.33986 29.5316 8.53126 30.6801 9.11915 31.3227C9.78907 32.0473 10.6094 32.1293 11.4981 31.8285C14.2051 30.9125 16.9121 29.9828 19.6192 29.0531C26.7012 26.6332 33.7695 24.1996 40.8516 21.807C43.5723 20.891 46.1426 21.2465 48.5078 22.9145C51.4336 24.9926 54.3594 27.0434 57.2988 29.1078C57.4629 29.2172 57.627 29.3129 57.791 29.4223C57.8047 29.3812 57.8457 29.3402 57.8731 29.3129Z" fill="white"/>
<path d="M23.7344 20.6036C23.8027 19.8927 24.2266 19.5509 24.8555 19.5099C25.4844 19.4689 25.9629 20.0431 25.9082 20.6993C25.8535 21.3829 25.416 21.7521 24.7734 21.7111C24.1309 21.67 23.7754 21.2325 23.7344 20.6036Z" fill="white"/>
</g>
</g>
<defs>
<clipPath id="clip0_143_1613">
<rect width="70" height="70" fill="white"/>
</clipPath>
</defs>
</svg>
