<svg width="70" height="70" viewBox="0 0 70 70" fill="none" xmlns="http://www.w3.org/2000/svg">
<g clip-path="url(#clip0_143_1349)">
<mask id="mask0_143_1349" style="mask-type:luminance" maskUnits="userSpaceOnUse" x="0" y="0" width="70" height="70">
<path d="M70 0H0V70H70V0Z" fill="white"/>
</mask>
<g mask="url(#mask0_143_1349)">
<path d="M9.14648 36.3671C8.32617 21.1093 20.8906 8.9687 35.2734 9.09175C48.7402 9.20112 61.4824 20.4121 60.9356 36.3671C61.3594 36.3671 61.7969 36.3398 62.2207 36.3671C63.1367 36.4218 63.5605 36.8593 63.6426 37.7753C63.6562 37.9804 63.6563 38.1855 63.6563 38.3906C63.6563 45.2128 63.6563 52.0214 63.6563 58.8437C63.6563 59.1171 63.6699 59.3906 63.6289 59.664C63.5469 60.4023 63.1231 60.8261 62.3711 60.9081C62.0977 60.9355 61.8242 60.9218 61.5508 60.9218C43.8594 60.9218 26.1816 60.9218 8.49023 60.9218C8.2168 60.9218 7.94336 60.9355 7.66992 60.9081C7.02734 60.8261 6.58984 60.4843 6.4668 59.8417C6.39844 59.4726 6.38477 59.1035 6.38477 58.7343C6.38477 52.0214 6.38477 45.3085 6.38477 38.5956C6.38477 38.3222 6.37109 38.0488 6.39844 37.7753C6.50781 36.873 6.97266 36.4355 7.875 36.3945C8.25781 36.3398 8.66797 36.3671 9.14648 36.3671ZM12.0039 36.3124C27.3848 36.3124 42.7109 36.3124 58.1875 36.3124C58.3652 27.6445 55.0703 20.7675 48.002 15.832C40.3867 10.5136 30.1738 10.5 22.3262 15.6406C14.3555 20.8359 11.252 29.8867 12.0039 36.3124ZM60.8672 58.1601C60.8672 51.748 60.8672 45.4589 60.8672 39.1425C43.6133 39.1425 26.4277 39.1425 9.22852 39.1425C9.22852 45.5136 9.22852 51.83 9.22852 58.1601C26.4824 58.1601 43.6406 58.1601 60.8672 58.1601Z" fill="#F5DB89"/>
<path d="M46.6894 20.0156C46.9219 20.0156 47.168 19.9883 47.4004 20.0156C48.1523 20.1113 48.6719 20.6855 48.6582 21.3828C48.6445 22.0664 48.1934 22.5723 47.4551 22.668C46.9219 22.75 46.375 22.791 45.8281 22.8457C43.75 23.0371 42.0683 23.9531 40.7422 25.5527C40.5918 25.7305 40.4551 25.9355 40.3047 26.127C39.7578 26.8105 38.9512 26.9746 38.3359 26.5508C37.7207 26.1133 37.5976 25.293 38.0898 24.5547C39.3887 22.627 41.1387 21.2598 43.3808 20.5898C44.4473 20.2754 45.5683 20.125 46.6621 19.9062C46.6758 19.9473 46.6758 19.9746 46.6894 20.0156Z" fill="#F5DB89"/>
<path d="M23.2422 20.002C26.6602 20.1523 29.5176 21.3418 31.623 24.0762C31.7734 24.2676 31.9238 24.459 32.0332 24.6641C32.4434 25.3887 32.3066 26.1543 31.6914 26.5645C31.1309 26.9473 30.3516 26.8242 29.8457 26.2773C29.668 26.0723 29.5176 25.8398 29.3535 25.6348C28.0547 24.0078 26.373 23.0918 24.2949 22.873C23.7891 22.8184 23.2832 22.7773 22.7773 22.709C21.875 22.6133 21.4238 22.1484 21.4238 21.3691C21.4238 20.5488 21.957 20.0566 22.8867 20.0156C23.0234 20.002 23.1602 20.002 23.2422 20.002Z" fill="#F5DB89"/>
<path d="M25.5117 29.5859C25.5117 28.6973 25.4844 27.8223 25.5117 26.9336C25.5391 25.9902 26.0449 25.4844 26.8652 25.4844C27.6719 25.498 28.1914 26.0176 28.2051 26.9609C28.2324 28.6973 28.2324 30.4336 28.2051 32.1563C28.1914 33.0449 27.5899 33.6465 26.8379 33.6328C26.0723 33.6191 25.5664 33.0449 25.5117 32.1289C25.5117 32.0605 25.5117 31.9922 25.5117 31.9238C25.4981 31.1445 25.4981 30.3652 25.5117 29.5859Z" fill="#F5DB89"/>
<path d="M41.8633 29.5037C41.8633 28.656 41.8359 27.8084 41.8633 26.9607C41.8906 26.0174 42.3828 25.4978 43.2031 25.5115C44.0098 25.5115 44.543 26.0447 44.5566 26.9744C44.584 28.7107 44.584 30.447 44.5566 32.1697C44.543 33.0584 43.9551 33.6599 43.2031 33.6599C42.4375 33.6599 41.8906 33.0857 41.8633 32.1697C41.8496 31.2674 41.8633 30.3787 41.8633 29.5037Z" fill="#F5DB89"/>
<path d="M17.2813 52.5409C17.2813 51.4198 17.2813 50.4354 17.2813 49.41C16.6797 49.1639 16.0781 48.9452 15.5039 48.6581C13.9727 47.9061 13.2617 46.744 13.4668 45.3358C13.6582 44.1053 14.4102 43.244 15.4629 42.6561C15.873 42.4237 16.3379 42.3006 16.7617 42.0819C16.9805 41.9725 17.2539 41.7948 17.3086 41.5897C17.5 40.8514 17.9648 40.4549 18.6895 40.4823C19.4277 40.5096 19.8516 40.9745 20.002 41.6991C20.0156 41.7674 20.043 41.8221 20.084 41.9452C20.4668 42.0819 20.8906 42.2049 21.2871 42.3827C22.5176 42.9432 23.4609 43.7772 23.8027 45.1581C24.0215 46.0331 23.6387 46.8397 22.9004 47.0585C22.0938 47.3045 21.4785 46.9217 21.1777 45.951C21.0137 45.4042 20.6992 45.076 20.0703 44.9393C20.0703 45.7186 20.0703 46.4842 20.0703 47.2909C20.5215 47.4549 21 47.6053 21.4648 47.8104C21.9297 48.0155 22.4082 48.2206 22.832 48.494C24.8281 49.7655 25.0742 52.0077 23.4336 53.703C22.6953 54.4549 21.7793 54.8924 20.7949 55.1932C20.5625 55.2616 20.3301 55.3163 20.0977 55.371C20.0293 55.576 19.9746 55.7674 19.8926 55.9588C19.6738 56.5331 19.2363 56.8338 18.6348 56.8338C18.0332 56.8338 17.541 56.5467 17.4043 55.9452C17.2949 55.453 17.0078 55.3163 16.584 55.2069C15.4492 54.9061 14.4238 54.3866 13.6445 53.4569C13.0977 52.8006 12.7832 52.076 12.8105 51.2147C12.8379 50.4764 13.3027 49.9706 13.9863 49.8885C14.6563 49.8065 15.3262 50.1756 15.4355 50.8866C15.627 51.8846 16.3379 52.1991 17.2813 52.5409ZM21.8203 51.037C21.2734 50.7499 20.7266 50.4628 20.0566 50.121C20.0566 51.037 20.0566 51.7342 20.0566 52.5135C20.8359 52.2674 21.5332 52.035 21.8203 51.037ZM17.2676 44.7206C16.7891 45.1034 16.4473 45.3768 15.9961 45.746C16.502 46.0331 16.8301 46.2245 17.2676 46.4706C17.2676 45.8553 17.2676 45.4042 17.2676 44.7206Z" fill="#F5DB89"/>
<path d="M34.6445 44.4746C34.7676 43.9687 34.8769 43.4629 35.0273 42.9844C35.3281 42.041 35.9844 41.6582 36.8047 41.9043C37.5019 42.1094 37.8164 42.7246 37.666 43.6133C37.625 43.873 37.584 44.1465 37.5429 44.4336C37.8164 44.5156 38.0761 44.584 38.3222 44.6933C38.9101 44.9531 39.1562 45.459 39.0742 46.1152C38.9922 46.7305 38.623 47.2363 38.0351 47.1816C36.832 47.0723 36.5312 47.7558 36.4082 48.7266C36.3535 49.123 36.2441 49.5058 36.1621 49.8887C37.4062 50.2988 37.8437 50.7773 37.7344 51.5293C37.625 52.3633 37.1191 52.6504 35.4238 52.8008C35.2734 53.3203 35.1367 53.8808 34.959 54.4141C34.6719 55.2344 34.084 55.5762 33.3047 55.3848C32.5937 55.2207 32.1972 54.5508 32.3476 53.7168C32.4023 53.4297 32.457 53.1289 32.539 52.7871C31.6504 52.7871 30.8437 52.7871 29.9414 52.7871C29.832 53.2656 29.7363 53.7715 29.5859 54.25C29.2988 55.207 28.6699 55.6035 27.8359 55.3848C27.084 55.1933 26.7695 54.5644 26.9472 53.6074C26.9883 53.375 27.0156 53.1426 27.0429 52.9785C26.5781 52.6777 26.0996 52.4453 25.7304 52.0898C25.5527 51.9121 25.5254 51.5156 25.539 51.2285C25.5801 50.4082 25.9765 50.1894 27.8222 49.9433C28.0273 49.1367 28.2461 48.2891 28.4512 47.4551C27.125 46.9355 26.7285 46.4844 26.8652 45.7187C27.0156 44.8984 27.5215 44.6113 29.1484 44.5293C29.2988 44.0234 29.4219 43.4766 29.6133 42.9433C29.914 42.0547 30.5293 41.7129 31.3222 41.9316C32.0195 42.123 32.375 42.793 32.2246 43.6406C32.1699 43.9004 32.1152 44.1738 32.0469 44.5019C32.9492 44.4746 33.7695 44.4746 34.6445 44.4746ZM33.9472 47.3047C32.9902 47.3047 32.1836 47.3047 31.3086 47.3047C31.0898 48.1933 30.8847 49.0547 30.666 49.9844C31.6094 49.9844 32.4023 49.9844 33.2637 49.9844C33.4961 49.0957 33.7012 48.2617 33.9472 47.3047Z" fill="#F5DB89"/>
<path d="M50.1621 55.4119C49.1094 55.4255 48.4668 54.6052 48.7403 53.6892C48.8086 53.4568 48.9317 53.2517 49.041 53.0466C50.6953 49.7244 52.336 46.4158 54.0039 43.0935C54.5781 41.9451 55.3301 41.5759 56.1504 41.9997C56.9024 42.3962 57.0117 43.1755 56.4375 44.3103C54.7832 47.6326 53.1289 50.9412 51.4746 54.2634C51.1739 54.865 50.8457 55.4255 50.1621 55.4119Z" fill="#F5DB89"/>
<path d="M44.5703 45.9236C44.5703 46.7713 44.584 47.6189 44.5703 48.4666C44.543 49.3689 44.0098 49.9705 43.2578 49.9978C42.4648 50.0252 41.8906 49.4236 41.877 48.4392C41.8496 46.7439 41.8496 45.0349 41.877 43.3396C41.8906 42.3689 42.3555 41.863 43.1758 41.8494C44.0234 41.8357 44.543 42.3689 44.5703 43.367C44.584 44.2283 44.5703 45.0759 44.5703 45.9236Z" fill="#F5DB89"/>
<path d="M48.6855 43.8729C48.6855 43.5721 48.6445 43.2577 48.6992 42.9569C48.8223 42.2459 49.3555 41.8358 50.0664 41.8495C50.7773 41.8631 51.2695 42.2869 51.3379 43.0389C51.3926 43.5721 51.3789 44.119 51.3379 44.6659C51.2695 45.3905 50.75 45.869 50.0801 45.8963C49.3965 45.9373 48.7949 45.4178 48.6855 44.6795C48.6445 44.4198 48.6719 44.1463 48.6855 43.8729Z" fill="#F5DB89"/>
<path d="M41.8906 53.4433C41.8906 53.1425 41.8633 52.8281 41.8906 52.5273C41.9727 51.8574 42.4648 51.4199 43.1074 51.3652C43.75 51.3105 44.4199 51.7754 44.502 52.4453C44.584 53.0742 44.584 53.7304 44.502 54.373C44.4062 55.0703 43.8047 55.4531 43.0938 55.4121C42.4238 55.3711 41.9863 54.9609 41.8906 54.2636C41.8496 53.9902 41.8633 53.7168 41.8496 53.457C41.8633 53.457 41.877 53.4433 41.8906 53.4433Z" fill="#F5DB89"/>
<path d="M56.8613 53.4295C56.834 53.7713 56.8477 54.1131 56.7656 54.4412C56.6016 55.0974 56.082 55.4529 55.3985 55.4256C54.7285 55.3982 54.2363 55.0017 54.168 54.3181C54.1133 53.7849 54.1133 53.2381 54.1406 52.6912C54.1953 51.9119 54.7285 51.3924 55.4258 51.3787C56.1094 51.365 56.6973 51.8845 56.793 52.6228C56.834 52.8826 56.793 53.1697 56.793 53.4295C56.8477 53.4295 56.8613 53.4295 56.8613 53.4295Z" fill="#F5DB89"/>
</g>
</g>
<defs>
<clipPath id="clip0_143_1349">
<rect width="70" height="70" fill="white"/>
</clipPath>
</defs>
</svg>
