<svg width="70" height="70" viewBox="0 0 70 70" fill="none" xmlns="http://www.w3.org/2000/svg">
<g clip-path="url(#clip0_143_1416)">
<mask id="mask0_143_1416" style="mask-type:luminance" maskUnits="userSpaceOnUse" x="0" y="0" width="70" height="70">
<path d="M70 0H0V70H70V0Z" fill="white"/>
</mask>
<g mask="url(#mask0_143_1416)">
<path d="M35.0273 19.7969C40.9473 19.7969 46.8672 19.8105 52.7871 19.7832C53.6758 19.7832 54.2773 20.0293 54.8379 20.7402C57.5312 24.1855 60.293 27.5762 63.0273 30.9941C63.7793 31.9238 63.7656 32.3066 63 33.1543C54.1269 42.9707 45.2402 52.7871 36.3672 62.6035C35.2051 63.8887 34.8223 63.8887 33.6738 62.6172C24.7871 52.8008 15.914 42.9844 7.041 33.168C6.24803 32.293 6.23436 31.9375 6.97264 31.0078C9.73436 27.5488 12.5234 24.0898 15.2715 20.6172C15.7363 20.0293 16.2558 19.7695 17.0078 19.7695C23.0098 19.8105 29.0254 19.7969 35.0273 19.7969ZM23.3379 33.209C27.2344 42.041 31.0762 50.75 35.0137 59.6641C38.9512 50.7227 42.8066 42 46.6758 33.209C38.8281 33.209 31.1445 33.209 23.3379 33.209ZM46.2656 30.9121C46.2109 30.707 46.1973 30.6113 46.1562 30.543C44.5566 27.8633 42.9707 25.1836 41.3301 22.5312C41.166 22.2578 40.6601 22.0664 40.3183 22.0664C36.7773 22.0391 33.2363 22.0527 29.6953 22.0391C29.1621 22.0391 28.834 22.1895 28.5605 22.668C27.0703 25.2109 25.539 27.7129 24.0351 30.2422C23.9258 30.4336 23.8437 30.6523 23.7207 30.9258C31.2676 30.9121 38.7324 30.9121 46.2656 30.9121ZM39.0879 56C39.1426 56.0273 39.1973 56.0547 39.2383 56.0957C46.0879 48.5078 52.9512 40.9336 59.9375 33.209C56.4375 33.209 53.1972 33.2227 49.957 33.1953C49.3281 33.1953 49.0273 33.3867 48.7812 33.9746C46.0605 40.1953 43.2988 46.416 40.5508 52.623C40.0586 53.7305 39.5664 54.8652 39.0879 56ZM10.0625 33.1953C17.0625 40.9473 23.9121 48.5078 30.7617 56.0684C30.3515 54.6738 29.791 53.375 29.2168 52.0898C26.5508 46.0332 23.8848 39.9766 21.1914 33.9336C21.0547 33.6328 20.7129 33.2227 20.4668 33.2227C17.0762 33.1816 13.6855 33.1953 10.0625 33.1953ZM26.3183 22.0391C23.3379 22.0391 20.5762 22.0527 17.8144 22.0254C17.2129 22.0254 16.8301 22.2168 16.4609 22.6816C14.4375 25.252 12.3867 27.7949 10.3496 30.3516C10.2265 30.502 10.1445 30.6797 9.96678 30.9668C10.418 30.9668 10.7461 30.9668 11.0605 30.9668C13.7676 30.9668 16.4746 30.8848 19.1816 31.0078C20.5078 31.0625 21.2597 30.6934 21.9023 29.5039C23.2422 27.002 24.7598 24.6367 26.3183 22.0391ZM43.6816 22.0391C45.4726 25.0332 47.1406 27.8359 48.8496 30.6113C48.9863 30.8301 49.4512 30.9395 49.7656 30.9395C52.9238 30.9668 56.0683 30.9531 59.2265 30.9531C59.4726 30.9531 59.7051 30.8984 60.0742 30.8711C58.0097 28.2871 56 25.8672 54.1133 23.3516C53.3613 22.3398 52.5547 21.957 51.2969 21.998C48.8086 22.1074 46.3476 22.0391 43.6816 22.0391Z" fill="white"/>
<path d="M28.4102 15.4765C28 15.2441 27.6719 15.1347 27.4531 14.9297C26.0039 13.5215 24.5684 12.0996 23.1602 10.6504C22.5586 10.0351 22.5586 9.40623 23.1055 8.94139C23.6934 8.4492 24.2539 8.58592 24.7598 9.10545C26.168 10.5137 27.6035 11.8945 28.957 13.3574C29.2168 13.6445 29.3672 14.2187 29.2852 14.6015C29.2031 14.916 28.7246 15.1621 28.4102 15.4765Z" fill="white"/>
<path d="M41.5898 15.4629C41.2754 15.1758 40.8242 14.9297 40.7148 14.5879C40.6055 14.2461 40.7285 13.6855 40.9746 13.4121C41.7676 12.4961 42.6699 11.6621 43.5313 10.8008C44.1191 10.2129 44.707 9.625 45.2949 9.03711C45.7871 8.55859 46.3477 8.46289 46.8809 8.92774C47.4551 9.4336 47.4141 10.0352 46.9082 10.5684C45.4453 12.0586 43.9824 13.5215 42.4922 14.9707C42.3008 15.1758 41.9863 15.2578 41.5898 15.4629Z" fill="white"/>
<path d="M36.0801 10.8416C36.0801 11.9354 36.0801 13.0428 36.0801 14.1365C36.0801 14.8611 35.7246 15.2986 35.0273 15.3123C34.2754 15.326 33.9062 14.8748 33.9062 14.1092C33.9199 11.9354 33.9199 9.76153 33.9062 7.60138C33.9062 6.87677 34.2617 6.43927 34.959 6.4256C35.7109 6.41192 36.0801 6.86309 36.0801 7.62872C36.0801 8.69513 36.0801 9.76153 36.0801 10.8416Z" fill="white"/>
<path d="M33.0312 37.6523C31.7871 37.6523 30.5293 37.6523 29.2851 37.6523C28.3554 37.6523 27.8633 37.2695 27.8359 36.5723C27.8222 35.8613 28.3008 35.4375 29.2168 35.4238C31.8008 35.4102 34.3847 35.4238 36.9687 35.4102C37.7344 35.4102 38.2402 35.7383 38.3359 36.5039C38.4179 37.1602 37.789 37.6387 36.9277 37.6523C35.6562 37.666 34.3437 37.6523 33.0312 37.6523Z" fill="white"/>
<path d="M41.6855 35.4375C42.2871 35.4375 42.834 35.9707 42.834 36.5586C42.8203 37.1328 42.2461 37.6934 41.6582 37.6523C41.002 37.5977 40.6465 37.1875 40.5645 36.5723C40.5098 35.998 41.0977 35.4375 41.6855 35.4375Z" fill="white"/>
</g>
</g>
<defs>
<clipPath id="clip0_143_1416">
<rect width="70" height="70" fill="white"/>
</clipPath>
</defs>
</svg>
