<svg width="70" height="70" viewBox="0 0 70 70" fill="none" xmlns="http://www.w3.org/2000/svg">
<g clip-path="url(#clip0_143_1319)">
<mask id="mask0_143_1319" style="mask-type:luminance" maskUnits="userSpaceOnUse" x="0" y="0" width="70" height="70">
<path d="M70 0H0V70H70V0Z" fill="white"/>
</mask>
<g mask="url(#mask0_143_1319)">
<path d="M46.6894 40.9747C48.7402 39.9357 50.6679 40.4279 52.4863 41.3986C54.0175 42.2052 55.4531 43.2033 56.9297 44.1056C58.2695 44.9259 59.5683 45.7872 60.9492 46.5255C62.0703 47.1271 63.2597 47.4962 64.5859 47.0861C64.9004 46.9904 65.4883 47.1408 65.6523 47.3868C65.8574 47.6876 65.9121 48.2755 65.7617 48.6036C64.2851 51.6115 62.0019 53.5665 58.5156 53.799C58.3105 53.8126 58.1054 53.8263 57.9004 53.84C57.873 53.84 57.8593 53.881 57.8183 53.922C57.8593 53.9904 57.8867 54.0861 57.9414 54.1681C58.5566 54.9884 58.5429 55.3439 57.8593 56.1232C55.959 58.256 53.0468 58.9122 50.4082 57.7911C50.0937 57.6544 49.7929 57.5177 49.4785 57.381C49.4375 57.4493 49.3828 57.504 49.3828 57.545C49.7929 59.0763 49.4511 59.5411 47.8379 59.5138C45.7597 59.4865 44.0508 58.6115 42.7929 57.0118C41.9453 55.9318 41.33 54.6603 40.6465 53.4435C40.332 52.8966 40.1133 52.295 39.7578 51.5157C39.498 52.0216 39.3066 52.3634 39.1425 52.7052C37.0371 57.0802 33.9199 60.3888 29.3535 62.2345C26.8242 63.2599 24.1855 63.6564 21.4648 63.588C20.6445 63.5607 20.0019 63.2872 19.414 62.6583C14.7383 57.6134 10.0215 52.5958 5.332 47.5646C5.16794 47.3868 4.92185 47.2228 4.88083 47.0314C4.7988 46.6622 4.7031 46.17 4.88083 45.8966C5.05857 45.6232 5.53708 45.5001 5.90622 45.4454C6.22067 45.4044 6.5488 45.5685 6.99997 45.4865C6.42575 44.8575 5.83786 44.2286 5.26364 43.5861C4.93552 43.2306 4.52536 42.9298 4.33396 42.5197C4.18357 42.2052 4.15622 41.6857 4.32028 41.3849C4.457 41.1388 4.92185 41.0431 5.24997 40.92C5.35935 40.879 5.50974 40.9474 5.64646 40.9747C9.6113 41.8771 12.9883 40.715 15.832 37.9532C16.748 37.0646 17.459 35.9435 18.2656 34.9454C18.6621 34.4396 18.6074 33.9474 18.1015 33.6329C17.3906 33.1954 16.6523 32.7443 15.8593 32.5255C14.8886 32.2657 13.8496 32.1974 12.8379 32.1017C10.705 31.9103 8.66794 31.4318 6.97263 30.0099C6.00192 29.2032 5.332 28.1915 4.96286 26.9884C4.56638 25.7032 4.92185 25.2247 6.24802 25.1427C6.33005 25.1427 6.42575 25.1017 6.58981 25.0607C6.28903 24.7189 6.0156 24.4181 5.75583 24.1173C3.95114 21.9298 3.66403 19.2775 4.97653 16.7755C5.55075 15.6681 5.90622 15.545 7.19138 16.0509C7.13669 15.7775 7.10935 15.5724 7.05466 15.3673C6.16599 11.963 7.20505 9.13294 9.63864 6.74036C9.88474 6.49426 10.3769 6.38489 10.7324 6.42591C11.2109 6.48059 11.457 6.94544 11.4433 7.41028C11.416 8.68176 12.0586 9.65247 12.9199 10.4454C14.2734 11.6896 15.7226 12.8243 17.1172 14.0138C18.4433 15.1349 19.7832 16.2423 21.0547 17.4181C21.5879 17.924 21.998 18.5802 22.3808 19.2228C22.9961 20.2755 23.1054 21.3966 22.6953 22.5724C22.2168 23.9259 21.8613 25.3068 22.2031 27.0021C22.4902 26.5919 22.6953 26.3185 22.8867 26.0314C25.7578 21.629 29.5039 18.1837 34.2754 15.9415C35.1367 15.545 36.0527 15.2716 36.9277 14.8888C37.625 14.588 38.1445 14.7657 38.6914 15.2443C41.5215 17.7599 44.3652 20.2482 47.209 22.7365C49.5332 24.7872 51.8711 26.8243 54.1953 28.8751C54.3457 29.0118 54.5097 29.1349 54.6465 29.2853C55.3027 29.9689 55.1933 30.6661 54.3593 31.09C54.1543 31.1993 53.9218 31.2677 53.7031 31.3771C53.498 31.4728 53.2929 31.5822 52.9375 31.7599C53.5527 32.3068 54.0996 32.7853 54.6328 33.2638C54.8925 33.4962 55.166 33.7013 55.3711 33.9611C55.8359 34.5216 55.7265 35.1368 55.0976 35.5197C54.8925 35.6427 54.6601 35.7111 54.4414 35.7931C51.5703 36.9142 49.1093 38.6505 46.8945 40.7423C46.7988 40.8107 46.7441 40.8927 46.6894 40.9747ZM41.2207 20.2072C38.3496 21.2325 35.6015 21.0001 32.9492 19.6876C32.4297 19.4279 32.0605 19.4962 31.664 19.8243C30.3242 20.9728 28.916 22.0529 27.6718 23.3107C25.1015 25.9083 23.2832 28.9982 21.875 32.3615C20.5898 35.4513 18.8672 38.2267 16.2285 40.3732C15.9824 40.5782 15.8183 40.9747 15.7773 41.3165C15.5996 42.7247 15.2715 44.0919 14.3691 45.1993C13.6582 46.0743 12.7422 46.799 11.8672 47.6466C13.5898 49.4923 15.4082 51.4611 17.2675 53.4025C17.4316 53.5802 17.8144 53.6075 18.0879 53.5939C20.0429 53.4708 21.9843 53.5529 23.83 54.2228C25.2109 54.7286 26.5234 55.4533 28.041 56.1505C28.6699 55.6993 29.4765 55.1935 30.2011 54.5919C32.3203 52.8282 33.7558 50.5587 34.7812 48.0431C37.0371 42.506 40.455 37.8439 45.1445 34.1115C45.8281 33.5646 46.539 33.045 47.2363 32.5255C46.7304 29.7365 46.8398 29.0118 48.2207 26.3595C45.9238 24.3497 43.5996 22.3126 41.2207 20.2072ZM46.7168 57.3673C46.7851 57.299 46.8398 57.2306 46.9082 57.1622C46.5937 56.424 46.2929 55.6993 45.9785 54.9611C45.8007 54.5509 45.582 54.1681 45.459 53.7443C45.3086 53.2657 45.3633 52.7872 45.8554 52.4865C46.334 52.1993 46.7715 52.295 47.1543 52.6779C47.4414 52.965 47.7148 53.2657 48.0019 53.5665C49.1093 54.7013 50.3125 55.6857 51.8847 56.1095C53.3886 56.506 54.7285 56.1915 55.9179 55.0841C54.9746 54.2228 54.0859 53.4298 53.2109 52.6232C52.3906 51.8712 52.2539 51.4474 52.6093 50.9005C52.9648 50.3673 53.4297 50.34 54.4277 50.7911C55.7129 51.3654 57.0254 51.8029 58.4609 51.7345C60.2793 51.6388 61.7148 50.8322 62.9316 49.3146C60.9082 48.9318 59.2675 48.0294 57.6816 47.0314C56.7382 46.4298 55.8222 45.7599 54.8652 45.1857C53.5254 44.379 52.1855 43.5724 50.791 42.8888C49.6152 42.3146 48.4941 42.3966 47.3593 43.2443C45.5547 44.6115 43.4765 45.0079 41.2754 44.3243C40.6465 44.1329 40.0312 43.8322 39.3613 43.5587C38.7324 44.6935 38.1308 45.8009 37.5293 46.922C37.7207 47.045 37.83 47.1407 37.9531 47.1681C39.2519 47.5782 40.2363 48.4122 40.9062 49.547C41.5625 50.6544 42.123 51.8165 42.6699 52.9923C43.2851 54.2911 43.955 55.549 45.1308 56.4513C45.6093 56.8204 46.1836 57.0665 46.7168 57.3673ZM9.91208 9.8302C9.8027 9.81653 9.707 9.81653 9.59763 9.80286C9.33786 10.6642 8.98239 11.5255 8.84567 12.4005C8.51755 14.6017 9.52927 16.3517 10.9238 17.9376C11.1972 18.2384 11.4707 18.5392 11.7168 18.8673C12.0175 19.2638 11.9355 19.715 11.6074 19.9747C11.334 20.1935 10.8965 20.2755 10.5273 20.2892C10.2812 20.3029 10.0351 20.0841 9.8027 19.9474C8.76364 19.3732 7.72458 18.799 6.68552 18.2247C5.93357 19.6876 6.08396 21.1505 7.12302 22.545C7.88864 23.5841 8.92771 24.295 10.0488 24.8966C10.623 25.1974 11.2246 25.4435 11.7988 25.7306C12.291 25.9767 12.455 26.4142 12.332 26.9337C12.209 27.4259 11.8398 27.6583 11.3476 27.631C10.705 27.6036 10.0625 27.5353 9.41989 27.4943C8.80466 27.4532 8.17575 27.4122 7.56052 27.3712C7.5195 27.4669 7.47849 27.549 7.43747 27.6447C7.99802 28.0958 8.53122 28.629 9.14646 28.9982C10.4043 29.7365 11.8125 29.9279 13.248 30.0782C14.5605 30.215 15.8867 30.379 17.1445 30.7482C18.0605 31.0079 18.8808 31.5958 19.7832 32.0607C20.1113 31.3497 20.4258 30.5978 20.7812 29.8732C20.9863 29.463 20.9863 29.1349 20.7402 28.7384C20.125 27.7404 19.9472 26.6193 20.0703 25.4982C20.1933 24.3907 20.3847 23.2833 20.7129 22.2169C20.9726 21.3556 20.9043 20.59 20.4121 19.8927C19.9609 19.2638 19.455 18.6486 18.8808 18.129C17.9511 17.2814 16.9531 16.5157 15.9687 15.7228C13.7402 13.9318 11.375 12.3458 9.91208 9.8302ZM38.1992 49.6974C37.0644 48.7677 36.7773 48.8361 36.1347 50.0529C35.6015 51.0372 35.0683 52.0353 34.4257 52.9513C31.4043 57.2716 27.33 59.5958 21.957 59.3224C20.5898 59.254 19.455 58.8849 18.4707 57.7775C15.6133 54.5783 12.6328 51.4884 9.707 48.3575C9.40622 48.0431 9.14646 47.6329 8.57224 47.9337C8.65427 48.0568 8.72263 48.1661 8.80466 48.2618C12.7968 52.5411 16.789 56.8204 20.8086 61.0724C21.0547 61.3322 21.5058 61.5099 21.8613 61.5236C24.0898 61.6329 26.2773 61.2911 28.3554 60.4845C33.414 58.5157 36.3398 54.5782 38.1992 49.6974ZM42.4101 42.6017C45.2265 39.0333 48.5351 36.2169 52.664 34.2618C52.0215 33.7013 51.4609 33.2228 50.914 32.7579C46.8398 35.0958 43.4082 38.049 40.5781 41.8634C41.2207 42.1095 41.7675 42.3419 42.4101 42.6017ZM13.5351 42.1642C12.5371 42.4513 11.6758 42.7521 10.7871 42.9572C9.89841 43.1486 8.99606 43.2443 7.94333 43.4083C8.57224 44.0919 9.16013 44.6798 9.67966 45.3224C10.0625 45.8009 10.459 45.7599 10.9238 45.5411C12.3457 44.8849 13.166 43.7638 13.5351 42.1642ZM19.3867 55.631C20.125 56.4786 20.6035 57.2579 21.6289 57.2579C22.5722 57.2579 23.5293 57.2716 24.4726 57.2443C24.664 57.2443 24.8418 57.1212 25.1972 56.9982C23.3105 56.0411 21.5058 55.6173 19.3867 55.631ZM49.205 31.3087C50.1757 30.7892 51.0781 30.297 52.0761 29.7638C51.2832 29.0665 50.5722 28.465 49.8613 27.8361C49.0136 29.1622 48.8496 30.0509 49.205 31.3087ZM34.6035 18.1017C36.2304 18.8673 38.1582 19.004 39.1562 18.4708C37.0507 16.5568 37.8574 16.6525 35.2187 17.7736C35.041 17.8419 34.8769 17.965 34.6035 18.1017Z" fill="#F5DB89"/>
<path d="M34.371 41.0296C34.6445 41.2757 34.9042 41.4944 35.1503 41.7268C35.7246 42.2737 35.8066 42.8753 35.3828 43.3264C34.9863 43.7639 34.4394 43.7503 33.8378 43.2991C33.6738 43.176 33.5234 43.0393 33.3593 42.9163C33.2226 42.8069 33.0859 42.7112 33.0175 42.6702C32.2929 42.9436 31.6503 43.2307 30.9804 43.4495C30.2148 43.6956 29.5039 43.4358 28.8476 43.0393C28.3554 42.7385 28.1503 42.301 28.3828 41.7268C28.6015 41.1936 29.1484 40.9475 29.7363 41.2346C30.4746 41.6038 31.0488 41.426 31.6093 40.9475C32.3203 40.3323 32.9081 39.6214 32.9355 38.637C32.9492 38.1038 32.3886 37.762 31.8144 37.9807C31.2539 38.1995 30.707 38.5003 30.1738 38.801C29.6679 39.0881 29.2031 39.4299 28.7109 39.7307C27.5214 40.4553 26.291 40.6604 25.0605 39.8538C23.9531 39.1292 23.4472 37.5569 23.789 36.1214C23.871 35.7932 23.9941 35.4788 24.1035 35.1506C23.3105 34.1799 23.2148 33.7151 23.707 33.2229C24.1445 32.7854 24.6093 32.8538 25.3476 33.3596C26.4277 33.1135 27.371 32.8264 28.3144 32.7307C29.1347 32.6487 29.6816 33.1682 29.6542 33.7835C29.6269 34.3577 29.1074 34.7952 28.3281 34.7542C27.3164 34.7131 26.6328 35.2327 26.0996 35.9573C25.8671 36.2854 25.7578 36.7776 25.7714 37.2014C25.7988 38.1448 26.4687 38.5413 27.3164 38.1311C27.8085 37.8987 28.2324 37.5432 28.7109 37.2835C29.5449 36.8323 30.3789 36.3674 31.2539 35.9983C33.291 35.137 35.4511 37.2835 34.9179 39.2932C34.7949 39.8401 34.5761 40.3733 34.371 41.0296Z" fill="#F5DB89"/>
<path d="M38.5683 30.338C38.5957 31.9923 37.2832 33.3321 35.6426 33.3595C33.9609 33.3868 32.5527 32.0196 32.5664 30.3653C32.5801 28.7521 33.9472 27.3985 35.5605 27.3849C37.1875 27.3712 38.541 28.6974 38.5683 30.338ZM36.4902 30.42C36.5039 29.9005 36.0664 29.4357 35.5605 29.4493C35.1094 29.463 34.6582 29.9142 34.6308 30.3517C34.6035 30.8439 35.0957 31.3224 35.6015 31.3087C36.0937 31.3087 36.4765 30.9259 36.4902 30.42Z" fill="#F5DB89"/>
<path d="M22.9414 48.4258C21.3691 48.4531 19.9199 47.0586 19.8926 45.4727C19.8516 43.8594 21.3008 42.3965 22.9414 42.3965C24.541 42.3965 25.9355 43.791 25.9355 45.4043C25.9355 47.0039 24.5547 48.3984 22.9414 48.4258ZM22.8867 44.4609C22.4629 44.4746 21.9707 44.9531 21.9434 45.377C21.916 45.8418 22.4355 46.375 22.9004 46.375C23.4062 46.375 23.8437 45.8965 23.8027 45.3633C23.7891 44.8711 23.3516 44.4473 22.8867 44.4609Z" fill="#F5DB89"/>
</g>
</g>
<defs>
<clipPath id="clip0_143_1319">
<rect width="70" height="70" fill="white"/>
</clipPath>
</defs>
</svg>
