<svg width="70" height="70" viewBox="0 0 70 70" fill="none" xmlns="http://www.w3.org/2000/svg">
<g clip-path="url(#clip0_143_1647)">
<mask id="mask0_143_1647" style="mask-type:luminance" maskUnits="userSpaceOnUse" x="0" y="0" width="70" height="70">
<path d="M70 0H0V70H70V0Z" fill="white"/>
</mask>
<g mask="url(#mask0_143_1647)">
<path d="M46.1426 33.209C46.3887 33.1133 46.6211 33.0586 46.8945 33.0039V30.7754C44.5703 30.9395 42.4512 32.4844 41.6856 34.6992C41.4258 35.4512 41.2891 36.3262 41.2754 37.3242C41.2481 40.9609 41.2481 44.666 41.2481 48.2344C41.2481 50.5176 41.2481 52.7871 41.2481 55.0703C41.2481 57.668 39.8672 59.6914 37.5567 60.4844C35.4512 61.209 33.0723 60.5117 31.6367 58.748C30.543 57.3945 30.4336 55.8223 30.4199 54.4414C30.4063 53.4297 30.7617 52.8555 31.6367 52.459C33.7422 51.4883 35.1094 48.2617 34.6992 46.416C33.8652 42.5879 33.8926 38.5273 34.8086 34.0156C35.3145 31.4727 35.8477 28.1094 35.3555 24.6641C35.2598 23.9805 35.1231 23.2695 35 22.5859C34.8633 21.8887 34.7266 21.1641 34.6309 20.4395C34.2207 17.5137 33.8516 14.5332 33.4824 11.6621L33.3731 10.8555C33.3594 10.6914 33.3184 10.6367 33.3184 10.623C33.3184 10.623 33.2774 10.6094 33.209 10.6094C33.1953 10.6094 33.168 10.6094 33.1406 10.6094C32.6621 10.6367 32.1699 10.6504 31.6641 10.6367C31.4317 10.6367 31.1992 10.6504 30.9531 10.6504H30.3516V6.83594H28.0274V10.6641H25.2793L25.1973 11.252C25.1016 11.9492 25.0195 12.5918 24.9375 13.248C24.8145 14.1504 24.7051 15.0664 24.5957 15.9688C24.3496 18.0332 24.1035 20.166 23.666 22.2305C22.9141 25.7988 22.9004 29.3535 23.6387 33.1133C24.582 37.9395 24.6914 42.2051 23.9668 46.1289C23.4883 48.6719 24.3223 50.709 26.3594 52.0078C27.918 53.0059 28.2188 54.0859 28.2188 55.7402C28.2188 57.9961 29.3262 60.1152 31.2539 61.5508C33.1953 62.9863 35.6699 63.4512 37.8711 62.7949C41.4668 61.7148 43.5313 58.8984 43.5449 55.084C43.5586 51.5566 43.5586 47.9883 43.5586 44.5156C43.5586 42.123 43.5586 39.7168 43.5586 37.3242C43.5449 34.6992 44.9668 33.6328 46.1426 33.209ZM26.4414 19.4824C26.5371 18.7852 26.6328 18.0879 26.7149 17.3906C26.7559 17.0488 26.7969 16.7207 26.8379 16.3789C26.9336 15.5996 27.0293 14.793 27.1524 14C27.2207 13.5898 27.6445 12.9746 28.1641 12.9336C28.8067 12.8789 29.4492 12.9336 30.1192 12.9336C30.3516 12.9336 30.5977 12.9746 30.8301 12.9746H31.3086L32.375 21.041H26.2363L26.4414 19.4824ZM29.2578 50.8184C29.0664 50.8184 28.875 50.791 28.6973 50.75C27.0977 50.3398 25.8535 48.3711 26.1817 46.7578C27.0703 42.5469 26.9473 37.9258 25.8125 32.2383C25.1973 29.1484 25.1563 26.373 25.7031 23.8438L25.7988 23.3789H32.8125L32.9082 23.8438C33.3047 25.7031 33.3731 27.6582 33.127 29.7363C32.9629 31.1172 32.7578 32.5391 32.5527 33.8926C32.334 35.3828 32.1152 36.9141 31.9375 38.4316C31.5957 41.3027 31.9512 44.1328 32.375 46.7441C32.4844 47.4277 32.4297 48.125 32.2246 48.6719C31.7598 49.9297 30.4746 50.8184 29.2578 50.8184Z" fill="white"/>
</g>
</g>
<defs>
<clipPath id="clip0_143_1647">
<rect width="70" height="70" fill="white"/>
</clipPath>
</defs>
</svg>
